<?xml version="1.0" standalone="no"?>
<!DOCTYPE svg PUBLIC "-//W3C//DTD SVG 20010904//EN"
 "http://www.w3.org/TR/2001/REC-SVG-20010904/DTD/svg10.dtd">
<svg version="1.0" xmlns="http://www.w3.org/2000/svg"
 width="2048.000000pt" height="1117.000000pt" viewBox="0 0 2048.000000 1117.000000"
 preserveAspectRatio="xMidYMid meet">
<metadata>
Created by potrace 1.16, written by Peter Selinger 2001-2019
</metadata>
<g transform="translate(0.000000,1117.000000) scale(0.100000,-0.100000)"
 stroke="none">
<path fill="#ffffff" d="M7205 6726 c-59 -27 -77 -46 -104 -106 -27 -59 -26 -114 3 -176 39
-83 110 -124 216 -124 88 0 157 39 193 110 24 47 28 64 24 111 -5 58 -32 122
-64 151 -65 59 -183 74 -268 34z"/>
<path fill="#ffffff" d="M19513 6673 l-33 -4 -1 -147 c-7 -983 -9 -1598 -3 -1739 l6 -173 184
0 184 0 -2 1033 -3 1032 -150 1 c-82 1 -165 -1 -182 -3z"/>
<path fill="#ffffff" d="M632 5893 c4 -744 4 -738 68 -892 87 -212 258 -349 510 -408 110 -26
375 -23 482 5 275 74 444 244 513 517 l25 98 0 678 0 679 -190 0 -189 0 -3
-682 c-3 -648 -4 -685 -22 -728 -45 -106 -119 -177 -221 -216 -39 -15 -77 -19
-175 -19 -116 0 -129 2 -184 28 -93 43 -140 88 -181 170 -19 40 -40 99 -45
132 -6 34 -10 328 -10 688 l0 627 -191 0 -190 0 3 -677z"/>
<path fill="#2b9e40" d="M13300 5590 l0 -980 230 0 230 0 0 980 0 980 -230 0 -230 0 0 -980z"/>
<path fill="#2b9e40" d="M14000 6375 l0 -195 274 0 c254 0 275 -1 278 -17 2 -10 3 -363 3
-785 l0 -768 233 0 232 0 0 785 0 785 275 2 276 3 5 193 6 192 -791 0 -791 0
0 -195z"/>
<path fill="#ffffff" d="M12795 6463 c-101 -88 -505 -436 -637 -549 -31 -27 -111 -96 -177
-154 l-121 -104 0 -117 c0 -116 0 -118 28 -139 15 -12 45 -38 67 -58 42 -40
435 -377 670 -576 77 -66 170 -146 207 -178 36 -32 70 -58 75 -58 4 0 9 96 10
214 l3 213 -53 49 c-58 54 -81 74 -177 153 -36 30 -96 82 -135 116 -38 35
-122 106 -185 159 -63 53 -115 101 -115 106 0 5 56 57 125 116 203 173 379
324 462 397 l78 69 0 219 c0 120 -3 219 -7 218 -5 0 -57 -44 -118 -96z"/>
<path fill="#ffffff" d="M15860 6337 l0 -224 148 -126 c447 -380 517 -440 519 -446 1 -3 -69
-64 -154 -136 -175 -146 -200 -167 -327 -280 -50 -44 -112 -97 -139 -119 l-47
-38 0 -225 0 -224 92 78 c51 43 145 123 209 178 64 55 210 181 325 280 115 98
260 224 322 279 l112 99 0 108 0 108 -182 158 c-100 87 -250 216 -333 287 -82
71 -184 159 -225 195 -41 37 -130 113 -197 169 l-123 103 0 -224z"/>
<path fill="#ffffff" d="M3109 6100 c-139 -22 -270 -89 -367 -187 -149 -152 -212 -323 -212
-579 0 -274 97 -482 292 -629 122 -91 239 -127 418 -127 190 -1 325 45 440
149 98 89 163 216 176 348 l7 65 -189 -2 -189 -3 -7 -49 c-10 -72 -51 -125
-123 -161 -67 -33 -146 -39 -222 -17 -58 17 -146 100 -178 167 -85 181 -67
459 39 598 130 170 388 145 466 -47 l21 -53 187 5 c103 2 188 5 189 7 5 4 -28
119 -49 168 -31 75 -102 172 -159 217 -61 48 -155 95 -234 115 -73 20 -230 27
-306 15z"/>
<path fill="#ffffff" d="M6050 6099 c-214 -35 -390 -167 -485 -364 -70 -143 -80 -193 -80
-390 1 -198 11 -250 81 -392 86 -174 227 -296 404 -346 116 -34 199 -41 310
-28 166 21 292 80 387 185 83 91 143 231 143 335 l0 41 -185 0 c-181 0 -185 0
-185 -21 0 -12 -14 -50 -30 -84 -36 -75 -91 -118 -176 -135 -101 -21 -193 10
-269 91 -79 85 -110 187 -109 359 1 165 34 267 115 355 51 56 111 79 203 80
55 0 82 -5 118 -23 51 -25 106 -91 128 -152 l12 -35 187 3 c102 2 188 5 189 7
9 8 -42 166 -71 220 -118 222 -397 341 -687 294z"/>
<path fill="#ffffff" d="M10580 6096 c-230 -54 -381 -171 -480 -374 -61 -125 -89 -317 -71
-485 21 -193 78 -328 188 -447 93 -100 199 -161 348 -201 73 -20 274 -17 355
5 225 61 385 221 423 424 l7 32 -183 0 -182 -1 -23 -50 c-42 -88 -117 -128
-243 -129 -179 -1 -293 120 -324 342 l-6 48 478 2 478 3 3 134 c2 109 -1 149
-18 218 -64 252 -206 408 -426 467 -80 22 -254 29 -324 12z m253 -296 c97 -46
158 -138 165 -247 l4 -63 -301 0 -301 0 0 30 c0 17 9 55 19 85 62 176 258 268
414 195z"/>
<path fill="#ffffff" d="M18425 6099 c-83 -12 -175 -60 -250 -131 l-64 -59 -15 53 c-8 29 -18
65 -22 81 l-6 27 -149 0 -149 0 0 -1060 0 -1060 185 0 185 0 0 385 c0 212 2
385 5 385 3 0 26 -16 51 -36 103 -78 191 -107 324 -107 181 0 317 57 446 189
156 159 229 399 204 670 -13 129 -31 204 -76 300 -70 148 -175 258 -310 320
-107 50 -218 63 -359 43z m180 -354 c117 -57 194 -212 195 -390 0 -268 -135
-445 -339 -445 -135 0 -234 57 -288 168 -28 57 -28 58 -28 257 l0 200 29 59
c30 62 94 131 136 149 109 44 208 45 295 2z"/>
<path fill="#ffffff" d="M4080 5920 l0 -150 366 -2 366 -3 -167 -195 c-92 -107 -190 -222
-219 -255 -29 -33 -123 -142 -209 -243 l-157 -182 0 -140 0 -140 610 0 c336 0
610 3 610 8 1 4 2 72 3 152 l2 145 -373 0 c-204 0 -372 3 -372 6 0 7 -1 5 365
434 160 187 309 363 333 391 47 56 49 70 35 242 l-6 82 -593 0 -594 0 0 -150z"/>
<path fill="#ffffff" d="M7130 5340 l0 -730 185 0 185 0 0 730 0 730 -185 0 -185 0 0 -730z"/>
<path fill="#ffffff" d="M7740 6063 c0 -3 16 -54 34 -112 68 -208 166 -510 246 -761 45 -140
106 -327 134 -415 l52 -160 183 0 183 0 20 60 c41 126 168 560 215 733 10 34
20 62 23 62 3 0 20 -53 39 -118 32 -109 97 -319 189 -612 l39 -125 184 -3 185
-2 19 62 c10 35 40 128 66 208 67 204 288 901 344 1083 l33 107 -188 0 -187 0
-41 -152 c-22 -84 -68 -254 -102 -378 -34 -124 -75 -277 -92 -340 -16 -63 -33
-119 -36 -124 -5 -9 -80 232 -207 664 -68 232 -75 252 -86 260 -4 3 -78 3
-165 0 l-157 -5 -33 -115 c-87 -311 -222 -779 -230 -800 -3 -8 -19 32 -35 90
-135 480 -181 647 -199 720 -11 47 -28 106 -36 133 l-16 47 -189 0 c-104 0
-189 -3 -189 -7z"/>
<path fill="#ffffff" d="M17136 5050 c-56 -28 -82 -56 -113 -117 -22 -47 -25 -62 -21 -123 7
-90 42 -151 112 -195 42 -25 62 -31 125 -33 87 -4 130 10 186 60 57 50 80 101
79 183 0 101 -48 181 -136 226 -52 27 -178 26 -232 -1z"/>
</g>
</svg>
