<?xml version="1.0" standalone="no"?>
<!DOCTYPE svg PUBLIC "-//W3C//DTD SVG 20010904//EN"
 "http://www.w3.org/TR/2001/REC-SVG-20010904/DTD/svg10.dtd">
<svg version="1.0" xmlns="http://www.w3.org/2000/svg"
 width="2048.000000pt" height="2048.000000pt" viewBox="0 0 2048.000000 2048.000000"
 preserveAspectRatio="xMidYMid meet">
<metadata>
Created by potrace 1.16, written by Peter Selinger 2001-2019
</metadata>
<g transform="translate(0.000000,2048.000000) scale(0.100000,-0.100000)"
 stroke="none">
<path fill="#ffffff" d="M4975 13628 c-16 -12 -32 -25 -35 -28 -3 -3 -23 -19 -45 -35 -22 -16
-47 -35 -55 -42 -112 -90 -260 -207 -307 -244 -32 -25 -159 -126 -283 -224
-123 -99 -242 -193 -265 -210 -22 -17 -85 -66 -140 -109 -55 -43 -133 -103
-174 -134 -41 -32 -95 -75 -121 -97 -26 -22 -116 -94 -200 -160 -84 -66 -176
-139 -206 -162 -29 -24 -135 -107 -236 -186 -101 -78 -234 -183 -297 -232 -62
-50 -181 -143 -265 -208 -351 -274 -442 -345 -508 -399 -38 -32 -92 -76 -121
-97 -29 -22 -91 -71 -139 -108 -48 -37 -172 -133 -275 -213 -235 -183 -277
-222 -269 -252 3 -13 6 -215 6 -450 l0 -428 148 -117 c82 -65 184 -145 226
-178 96 -74 194 -151 222 -174 11 -10 68 -54 125 -97 57 -43 109 -83 115 -89
7 -5 44 -35 84 -65 172 -131 369 -286 420 -329 30 -26 111 -90 180 -141 69
-52 127 -97 130 -100 6 -7 162 -130 400 -314 85 -66 173 -135 195 -153 22 -19
45 -37 50 -41 55 -41 159 -122 195 -152 25 -21 83 -66 130 -102 106 -80 215
-163 257 -197 18 -14 45 -36 60 -48 15 -12 63 -50 107 -85 43 -34 90 -72 105
-83 14 -10 58 -45 97 -76 39 -32 116 -92 170 -133 82 -62 191 -148 265 -210 8
-7 42 -32 74 -56 59 -43 74 -55 123 -98 63 -54 88 -63 159 -60 l68 3 0 775 0
774 -152 116 c-200 152 -524 403 -578 448 -11 9 -36 27 -55 41 -19 13 -37 26
-40 30 -3 3 -21 18 -42 33 -20 15 -42 33 -50 40 -7 8 -33 29 -58 48 -55 43
-62 48 -130 103 -30 24 -131 102 -225 172 -93 71 -210 160 -260 199 -49 40
-137 107 -195 151 -58 43 -141 106 -184 140 -44 33 -109 83 -145 110 -37 28
-132 102 -211 166 -80 63 -171 135 -203 159 -32 23 -57 49 -55 55 4 16 203
174 573 455 83 62 184 141 225 174 41 34 109 86 150 115 41 30 93 70 115 89
57 49 631 492 709 547 23 17 114 87 202 156 173 136 240 188 442 339 73 55
141 109 152 120 20 20 20 35 20 800 l0 780 -72 0 c-59 -1 -79 -5 -103 -22z"/>
<path fill="#2b9e40" d="M6907 13643 c-16 -4 -17 -163 -15 -3406 l3 -3402 655 0 654 0 1 3407
1 3408 -641 -2 c-352 -1 -648 -3 -658 -5z m720 -65 c-3 -8 -6 -5 -6 6 -1 11 2
17 5 13 3 -3 4 -12 1 -19z m-47 -12 c0 -3 -4 -8 -10 -11 -5 -3 -10 -1 -10 4 0
6 5 11 10 11 6 0 10 -2 10 -4z m600 -250 c0 -2 -7 -7 -16 -10 -8 -3 -12 -2 -9
4 6 10 25 14 25 6z m-1250 -96 c0 -5 -5 -10 -11 -10 -5 0 -7 5 -4 10 3 6 8 10
11 10 2 0 4 -4 4 -10z m1247 -32 c2 -17 0 -19 -7 -8 -5 8 -6 18 -4 22 8 12 10
10 11 -14z m-1250 -10 c-3 -8 -6 -5 -6 6 -1 11 2 17 5 13 3 -3 4 -12 1 -19z
m1253 -70 c0 -18 -2 -20 -9 -8 -6 8 -7 18 -5 22 9 14 14 9 14 -14z m-1253 -65
c-3 -10 -5 -4 -5 12 0 17 2 24 5 18 2 -7 2 -21 0 -30z m1250 5 c-3 -8 -6 -5
-6 6 -1 11 2 17 5 13 3 -3 4 -12 1 -19z m-1256 -51 c-10 -9 -11 -8 -5 6 3 10
9 15 12 12 3 -3 0 -11 -7 -18z m9 -92 c0 -8 -4 -15 -10 -15 -5 0 -7 7 -4 15 4
8 8 15 10 15 2 0 4 -7 4 -15z m-3 -47 c-3 -8 -6 -5 -6 6 -1 11 2 17 5 13 3 -3
4 -12 1 -19z m0 -90 c-3 -7 -5 -2 -5 12 0 14 2 19 5 13 2 -7 2 -19 0 -25z m3
-1138 c0 -5 -5 -10 -11 -10 -5 0 -7 5 -4 10 3 6 8 10 11 10 2 0 4 -4 4 -10z
m-13 -1012 c-3 -8 -6 -5 -6 6 -1 11 2 17 5 13 3 -3 4 -12 1 -19z m5 -660 c-7
-7 -12 -8 -12 -2 0 14 12 26 19 19 2 -3 -1 -11 -7 -17z m8 -272 c0 -3 -4 -8
-10 -11 -5 -3 -10 -1 -10 4 0 6 5 11 10 11 6 0 10 -2 10 -4z m-6 -202 c3 -8 2
-12 -4 -9 -6 3 -10 10 -10 16 0 14 7 11 14 -7z m0 -224 c-5 -5 -10 3 -11 18
-1 22 0 24 9 8 6 -10 6 -22 2 -26z m-3 -1923 c-10 -9 -11 -8 -5 6 3 10 9 15
12 12 3 -3 0 -11 -7 -18z m639 -402 c0 -7 -30 -13 -34 -7 -3 4 4 9 15 9 10 1
19 0 19 -2z m-53 -11 c-3 -3 -12 -4 -19 -1 -8 3 -5 6 6 6 11 1 17 -2 13 -5z
m46 -51 c-7 -2 -19 -2 -25 0 -7 3 -2 5 12 5 14 0 19 -2 13 -5z"/>
<path fill="#2b9e40" d="M9196 13641 c-3 -4 -4 -249 -3 -544 l2 -537 1022 0 c905 0 1022 2
1017 15 -4 8 -1 15 7 15 7 0 9 -3 6 -7 -4 -3 0 -14 9 -24 14 -16 16 -273 16
-2873 l0 -2856 657 2 656 3 2 2590 c2 1677 -1 2585 -7 2575 -8 -13 -10 -12
-10 3 0 9 5 17 10 17 6 0 10 25 10 55 0 30 -4 55 -10 55 -5 0 -10 8 -10 18 0
14 2 15 10 2 8 -12 10 -11 10 7 0 12 -6 24 -12 27 -10 5 -10 7 0 12 15 7 16
44 1 44 -8 0 -8 5 1 15 10 12 10 18 -1 32 -10 11 -10 14 -1 9 8 -5 12 0 12 16
0 18 -2 20 -10 8 -6 -9 -10 -10 -10 -3 0 6 5 15 10 18 13 8 10 195 -2 195 -5
0 -6 -4 -3 -10 9 -15 -4 -12 -21 4 -16 17 -4 29 20 20 10 -4 17 2 22 20 6 27
28 35 40 14 4 -6 3 -8 -4 -4 -6 3 -13 2 -17 -4 -4 -7 329 -10 1025 -10 l1031
0 -3 219 c-2 146 -6 217 -13 214 -5 -3 -4 0 3 8 6 7 12 17 12 22 0 4 -6 5 -12
1 -10 -6 -10 -4 0 7 14 16 16 33 2 24 -5 -3 -10 -1 -10 4 0 6 5 11 10 11 6 0
10 4 10 9 0 6 -9 9 -20 8 -12 -1 -18 -7 -16 -14 3 -7 1 -13 -4 -13 -6 0 -10
14 -10 30 0 22 5 30 18 29 10 0 12 -3 4 -6 -6 -2 -10 -9 -7 -13 3 -5 11 -7 19
-4 13 5 15 31 2 52 -4 6 -3 12 2 12 10 0 9 30 -2 48 -4 6 -3 12 2 12 4 0 9 94
11 209 2 168 0 209 -11 214 -21 7 -5458 6 -5462 -2z m4944 -45 c0 -3 -4 -8
-10 -11 -5 -3 -10 -1 -10 4 0 6 5 11 10 11 6 0 10 -2 10 -4z m504 -342 c3 -8
0 -27 -8 -42 l-13 -26 0 27 c0 15 3 24 8 21 5 -3 9 0 9 5 0 6 -4 11 -10 11 -5
0 -10 5 -10 10 0 16 17 12 24 -6z m-12 -110 c-8 -14 -9 -13 -9 10 0 18 3 24 9
18 7 -7 7 -16 0 -28z m11 -187 c7 4 5 -2 -3 -13 -8 -10 -15 -20 -16 -22 -1 -2
-1 10 -1 25 0 15 2 22 4 15 3 -6 10 -9 16 -5z m-3450 -374 c-7 -2 -21 -2 -30
0 -10 3 -4 5 12 5 17 0 24 -2 18 -5z m137 -13 c0 -5 -2 -10 -4 -10 -3 0 -8 5
-11 10 -3 6 -1 10 4 10 6 0 11 -4 11 -10z m1248 -105 c0 -32 -10 -25 -13 10
-2 14 0 23 5 20 4 -2 8 -16 8 -30z m-1 -532 c-3 -10 -5 -2 -5 17 0 19 2 27 5
18 2 -10 2 -26 0 -35z m0 -85 c-2 -13 -4 -3 -4 22 0 25 2 35 4 23 2 -13 2 -33
0 -45z m0 -90 c-3 -7 -5 -2 -5 12 0 14 2 19 5 13 2 -7 2 -19 0 -25z m2 -134
c-1 -64 -4 -112 -8 -106 -4 6 -6 24 -5 39 1 15 3 63 3 106 1 42 3 77 6 77 3 0
5 -52 4 -116z m1 -271 c0 -21 -3 -24 -9 -14 -5 8 -7 20 -4 28 8 21 13 15 13
-14z m0 -103 c0 -5 -2 -10 -4 -10 -3 0 -8 5 -11 10 -3 6 -1 10 4 10 6 0 11 -4
11 -10z m-3 -72 c-3 -8 -6 -5 -6 6 -1 11 2 17 5 13 3 -3 4 -12 1 -19z m-6 -71
c-10 -9 -11 -8 -5 6 3 10 9 15 12 12 3 -3 0 -11 -7 -18z m7 -47 c0 -16 -3 -30
-7 -30 -7 0 -8 20 -2 53 3 17 8 5 9 -23z m-5 -55 c-3 -9 -8 -14 -10 -11 -3 3
-2 9 2 15 9 16 15 13 8 -4z m5 -50 c1 -14 -2 -25 -6 -25 -7 0 -8 31 -3 48 3 8
7 -2 9 -23z m2 -45 c0 -5 -5 -10 -11 -10 -5 0 -7 5 -4 10 3 6 8 10 11 10 2 0
4 -4 4 -10z m0 -40 c0 -5 -2 -10 -4 -10 -3 0 -8 5 -11 10 -3 6 -1 10 4 10 6 0
11 -4 11 -10z m0 -24 c0 -3 -4 -8 -10 -11 -5 -3 -10 -1 -10 4 0 6 5 11 10 11
6 0 10 -2 10 -4z m0 -76 c0 -5 -2 -10 -4 -10 -3 0 -8 5 -11 10 -3 6 -1 10 4
10 6 0 11 -4 11 -10z m0 -30 c0 -5 -5 -10 -11 -10 -5 0 -7 5 -4 10 3 6 8 10
11 10 2 0 4 -4 4 -10z m0 -120 c0 -5 -4 -10 -10 -10 -5 0 -10 5 -10 10 0 6 5
10 10 10 6 0 10 -4 10 -10z m0 -34 c0 -3 -4 -8 -10 -11 -5 -3 -10 -1 -10 4 0
6 5 11 10 11 6 0 10 -2 10 -4z m-3 -126 c-2 -23 -10 -17 -12 10 -1 10 2 17 6
14 4 -2 7 -13 6 -24z m3 -40 c0 -5 -5 -10 -11 -10 -5 0 -7 5 -4 10 3 6 8 10
11 10 2 0 4 -4 4 -10z m-3 -42 c-3 -8 -6 -5 -6 6 -1 11 2 17 5 13 3 -3 4 -12
1 -19z m3 -88 c0 -5 -2 -10 -4 -10 -3 0 -8 5 -11 10 -3 6 -1 10 4 10 6 0 11
-4 11 -10z m0 -80 c0 -5 -5 -10 -11 -10 -5 0 -7 5 -4 10 3 6 8 10 11 10 2 0 4
-4 4 -10z m0 -80 c0 -5 -2 -10 -4 -10 -3 0 -8 5 -11 10 -3 6 -1 10 4 10 6 0
11 -4 11 -10z m0 -160 c0 -5 -5 -10 -11 -10 -5 0 -7 5 -4 10 3 6 8 10 11 10 2
0 4 -4 4 -10z m0 -280 c0 -5 -5 -10 -11 -10 -5 0 -7 5 -4 10 3 6 8 10 11 10 2
0 4 -4 4 -10z m0 -30 c0 -5 -5 -10 -11 -10 -5 0 -7 5 -4 10 3 6 8 10 11 10 2
0 4 -4 4 -10z m0 -30 c0 -5 -5 -10 -11 -10 -5 0 -7 5 -4 10 3 6 8 10 11 10 2
0 4 -4 4 -10z m0 -30 c0 -5 -5 -10 -11 -10 -5 0 -7 5 -4 10 3 6 8 10 11 10 2
0 4 -4 4 -10z m0 -30 c0 -5 -5 -10 -11 -10 -5 0 -7 5 -4 10 3 6 8 10 11 10 2
0 4 -4 4 -10z m-4 -77 c-10 -10 -19 5 -10 18 6 11 8 11 12 0 2 -7 1 -15 -2
-18z m4 -223 c0 -5 -5 -10 -11 -10 -5 0 -7 5 -4 10 3 6 8 10 11 10 2 0 4 -4 4
-10z m0 -124 c0 -3 -4 -8 -10 -11 -5 -3 -10 -1 -10 4 0 6 5 11 10 11 6 0 10
-2 10 -4z m0 -76 c0 -5 -5 -10 -11 -10 -5 0 -7 5 -4 10 3 6 8 10 11 10 2 0 4
-4 4 -10z m0 -84 c0 -3 -4 -8 -10 -11 -5 -3 -10 -1 -10 4 0 6 5 11 10 11 6 0
10 -2 10 -4z m0 -60 c0 -3 -4 -8 -10 -11 -5 -3 -10 -1 -10 4 0 6 5 11 10 11 6
0 10 -2 10 -4z m0 -206 c0 -5 -5 -10 -11 -10 -5 0 -7 5 -4 10 3 6 8 10 11 10
2 0 4 -4 4 -10z m0 -60 c0 -5 -5 -10 -11 -10 -5 0 -7 5 -4 10 3 6 8 10 11 10
2 0 4 -4 4 -10z m0 -195 c0 -8 -2 -15 -4 -15 -2 0 -6 7 -10 15 -3 8 -1 15 4
15 6 0 10 -7 10 -15z m0 -35 c0 -5 -5 -10 -11 -10 -5 0 -7 5 -4 10 3 6 8 10
11 10 2 0 4 -4 4 -10z m0 -60 c0 -5 -5 -10 -11 -10 -5 0 -7 5 -4 10 3 6 8 10
11 10 2 0 4 -4 4 -10z m-675 -1448 c-3 -3 -11 0 -18 7 -9 10 -8 11 6 5 10 -3
15 -9 12 -12z"/>
<path fill="#ffffff" d="M15337 13643 c-4 -3 -7 -354 -7 -779 l0 -772 48 -42 c26 -24 63 -53
82 -66 35 -23 122 -89 570 -434 132 -102 261 -201 286 -220 26 -19 100 -76
165 -127 65 -51 131 -100 146 -110 15 -10 39 -28 53 -41 14 -13 66 -54 115
-92 50 -38 118 -90 152 -117 34 -26 106 -82 160 -123 89 -68 316 -244 353
-273 8 -7 83 -66 165 -133 83 -66 185 -146 228 -178 43 -33 76 -60 75 -61 -51
-46 -539 -427 -863 -675 -18 -14 -88 -68 -155 -120 -67 -52 -197 -153 -289
-223 -91 -71 -184 -143 -206 -162 -22 -18 -60 -48 -85 -67 -25 -19 -94 -72
-154 -119 -60 -46 -148 -113 -195 -149 -140 -106 -221 -170 -306 -240 -44 -37
-134 -107 -199 -156 -66 -49 -125 -94 -133 -100 -11 -9 -13 -147 -11 -780 l3
-769 71 -3 72 -3 138 106 c77 58 180 138 231 177 176 140 256 203 337 268 44
36 118 94 162 127 45 34 88 68 95 75 8 7 25 21 39 29 14 9 58 44 98 78 40 33
76 61 80 61 4 0 18 10 32 23 14 12 63 52 110 88 47 35 162 125 255 199 237
188 429 339 575 451 79 60 163 127 291 229 79 63 171 135 204 160 33 24 132
101 220 170 231 181 335 262 375 290 19 13 65 49 101 80 36 30 122 99 190 152
68 53 144 113 169 132 25 20 83 65 130 100 114 87 130 103 131 129 1 12 1 217
1 455 l0 434 -23 24 c-13 14 -48 44 -79 67 -30 23 -109 85 -175 138 -66 52
-212 167 -325 255 -113 88 -234 183 -270 212 -36 28 -193 151 -350 273 -458
358 -473 370 -510 399 -69 56 -438 346 -471 370 -18 14 -51 41 -74 60 -24 19
-111 89 -196 155 -84 66 -221 174 -303 240 -83 66 -169 133 -191 149 -22 16
-45 35 -51 41 -7 6 -49 40 -94 76 -46 35 -131 102 -190 149 -60 47 -143 112
-186 145 -43 33 -134 105 -203 160 -277 222 -266 215 -341 215 -37 0 -70 -3
-73 -7z"/>
</g>
</svg>
